<svg xmlns="http://www.w3.org/2000/svg" xmlns:xlink="http://www.w3.org/1999/xlink" width="500" zoomAndPan="magnify" viewBox="0 0 375 374.999991" height="500" preserveAspectRatio="xMidYMid meet" version="1.2"><defs/><g id="40c76ca48b"><rect x="0" width="375" y="0" height="374.999991" style="fill:#ffffff;fill-opacity:1;stroke:none;"/><rect x="0" width="375" y="0" height="374.999991" style="fill:#1b3652;fill-opacity:1;stroke:none;"/><g style="fill:#f5f3f5;fill-opacity:1;"><g transform="translate(66.022415, 206.011992)"><path style="stroke:none" d="M 18.078125 -27.390625 C 20.515625 -27.390625 22.789062 -26.773438 24.90625 -25.546875 C 27.03125 -24.328125 28.710938 -22.648438 29.953125 -20.515625 C 31.191406 -18.378906 31.8125 -16.015625 31.8125 -13.421875 C 31.8125 -10.828125 31.191406 -8.460938 29.953125 -6.328125 C 28.710938 -4.191406 27.03125 -2.507812 24.90625 -1.28125 C 22.789062 -0.0625 20.515625 0.546875 18.078125 0.546875 C 16.066406 0.546875 14.203125 0.128906 12.484375 -0.703125 C 10.765625 -1.546875 9.34375 -2.679688 8.21875 -4.109375 L 8.21875 10.953125 L 4.109375 10.953125 L 4.109375 -26.828125 L 8.21875 -26.828125 L 8.21875 -22.734375 C 9.34375 -24.148438 10.765625 -25.28125 12.484375 -26.125 C 14.203125 -26.96875 16.066406 -27.390625 18.078125 -27.390625 Z M 17.796875 -3.28125 C 19.585938 -3.28125 21.222656 -3.726562 22.703125 -4.625 C 24.179688 -5.519531 25.359375 -6.734375 26.234375 -8.265625 C 27.109375 -9.796875 27.546875 -11.515625 27.546875 -13.421875 C 27.546875 -15.316406 27.109375 -17.03125 26.234375 -18.5625 C 25.359375 -20.09375 24.179688 -21.304688 22.703125 -22.203125 C 21.222656 -23.097656 19.585938 -23.546875 17.796875 -23.546875 C 16.003906 -23.546875 14.347656 -23.097656 12.828125 -22.203125 C 11.316406 -21.304688 10.125 -20.09375 9.25 -18.5625 C 8.375 -17.03125 7.9375 -15.316406 7.9375 -13.421875 C 7.9375 -11.515625 8.375 -9.796875 9.25 -8.265625 C 10.125 -6.734375 11.316406 -5.519531 12.828125 -4.625 C 14.347656 -3.726562 16.003906 -3.28125 17.796875 -3.28125 Z M 17.796875 -3.28125 "/></g></g><g style="fill:#f5f3f5;fill-opacity:1;"><g transform="translate(96.244397, 206.011992)"><path style="stroke:none" d="M 25.796875 -26.828125 L 29.90625 -26.828125 L 29.90625 0 L 25.796875 0 L 25.796875 -4.109375 C 24.660156 -2.679688 23.234375 -1.546875 21.515625 -0.703125 C 19.804688 0.128906 17.945312 0.546875 15.9375 0.546875 C 13.488281 0.546875 11.207031 -0.0625 9.09375 -1.28125 C 6.976562 -2.507812 5.296875 -4.191406 4.046875 -6.328125 C 2.804688 -8.460938 2.1875 -10.828125 2.1875 -13.421875 C 2.1875 -16.015625 2.804688 -18.378906 4.046875 -20.515625 C 5.296875 -22.648438 6.976562 -24.328125 9.09375 -25.546875 C 11.207031 -26.773438 13.488281 -27.390625 15.9375 -27.390625 C 17.945312 -27.390625 19.804688 -26.96875 21.515625 -26.125 C 23.234375 -25.28125 24.660156 -24.148438 25.796875 -22.734375 Z M 16.265625 -3.28125 C 18.054688 -3.28125 19.695312 -3.726562 21.1875 -4.625 C 22.6875 -5.519531 23.875 -6.734375 24.75 -8.265625 C 25.625 -9.796875 26.0625 -11.515625 26.0625 -13.421875 C 26.0625 -15.316406 25.625 -17.03125 24.75 -18.5625 C 23.875 -20.09375 22.6875 -21.304688 21.1875 -22.203125 C 19.695312 -23.097656 18.054688 -23.546875 16.265625 -23.546875 C 14.472656 -23.546875 12.828125 -23.097656 11.328125 -22.203125 C 9.835938 -21.304688 8.65625 -20.09375 7.78125 -18.5625 C 6.90625 -17.03125 6.46875 -15.316406 6.46875 -13.421875 C 6.46875 -11.515625 6.90625 -9.796875 7.78125 -8.265625 C 8.65625 -6.734375 9.835938 -5.519531 11.328125 -4.625 C 12.828125 -3.726562 14.472656 -3.28125 16.265625 -3.28125 Z M 16.265625 -3.28125 "/></g></g><g style="fill:#f5f3f5;fill-opacity:1;"><g transform="translate(126.46638, 206.011992)"><path style="stroke:none" d="M 18.078125 -27.390625 C 20.515625 -27.390625 22.789062 -26.773438 24.90625 -25.546875 C 27.03125 -24.328125 28.710938 -22.648438 29.953125 -20.515625 C 31.191406 -18.378906 31.8125 -16.015625 31.8125 -13.421875 C 31.8125 -10.828125 31.191406 -8.460938 29.953125 -6.328125 C 28.710938 -4.191406 27.03125 -2.507812 24.90625 -1.28125 C 22.789062 -0.0625 20.515625 0.546875 18.078125 0.546875 C 16.066406 0.546875 14.203125 0.128906 12.484375 -0.703125 C 10.765625 -1.546875 9.34375 -2.679688 8.21875 -4.109375 L 8.21875 10.953125 L 4.109375 10.953125 L 4.109375 -26.828125 L 8.21875 -26.828125 L 8.21875 -22.734375 C 9.34375 -24.148438 10.765625 -25.28125 12.484375 -26.125 C 14.203125 -26.96875 16.066406 -27.390625 18.078125 -27.390625 Z M 17.796875 -3.28125 C 19.585938 -3.28125 21.222656 -3.726562 22.703125 -4.625 C 24.179688 -5.519531 25.359375 -6.734375 26.234375 -8.265625 C 27.109375 -9.796875 27.546875 -11.515625 27.546875 -13.421875 C 27.546875 -15.316406 27.109375 -17.03125 26.234375 -18.5625 C 25.359375 -20.09375 24.179688 -21.304688 22.703125 -22.203125 C 21.222656 -23.097656 19.585938 -23.546875 17.796875 -23.546875 C 16.003906 -23.546875 14.347656 -23.097656 12.828125 -22.203125 C 11.316406 -21.304688 10.125 -20.09375 9.25 -18.5625 C 8.375 -17.03125 7.9375 -15.316406 7.9375 -13.421875 C 7.9375 -11.515625 8.375 -9.796875 9.25 -8.265625 C 10.125 -6.734375 11.316406 -5.519531 12.828125 -4.625 C 14.347656 -3.726562 16.003906 -3.28125 17.796875 -3.28125 Z M 17.796875 -3.28125 "/></g></g><g style="fill:#f5f3f5;fill-opacity:1;"><g transform="translate(156.688362, 206.011992)"><path style="stroke:none" d="M 15.65625 -27.390625 C 18.101562 -27.390625 20.335938 -26.832031 22.359375 -25.71875 C 24.390625 -24.601562 25.988281 -23.03125 27.15625 -21 C 28.332031 -18.976562 28.921875 -16.671875 28.921875 -14.078125 C 28.921875 -13.203125 28.882812 -12.523438 28.8125 -12.046875 L 6.515625 -12.046875 C 6.773438 -9.378906 7.71875 -7.25 9.34375 -5.65625 C 10.96875 -4.070312 13.070312 -3.28125 15.65625 -3.28125 C 19.457031 -3.28125 22.195312 -4.832031 23.875 -7.9375 L 28.265625 -7.9375 C 27.160156 -5.195312 25.53125 -3.097656 23.375 -1.640625 C 21.226562 -0.179688 18.65625 0.546875 15.65625 0.546875 C 13.144531 0.546875 10.859375 -0.0625 8.796875 -1.28125 C 6.734375 -2.507812 5.113281 -4.179688 3.9375 -6.296875 C 2.769531 -8.410156 2.1875 -10.785156 2.1875 -13.421875 C 2.1875 -16.046875 2.769531 -18.414062 3.9375 -20.53125 C 5.113281 -22.65625 6.734375 -24.328125 8.796875 -25.546875 C 10.859375 -26.773438 13.144531 -27.390625 15.65625 -27.390625 Z M 15.65625 -23.546875 C 13.25 -23.546875 11.25 -22.851562 9.65625 -21.46875 C 8.070312 -20.082031 7.082031 -18.179688 6.6875 -15.765625 L 24.59375 -15.765625 C 24.332031 -18.109375 23.367188 -19.988281 21.703125 -21.40625 C 20.046875 -22.832031 18.03125 -23.546875 15.65625 -23.546875 Z M 15.65625 -23.546875 "/></g></g><g style="fill:#f5f3f5;fill-opacity:1;"><g transform="translate(183.734734, 206.011992)"><path style="stroke:none" d="M 18.890625 -27.109375 L 18.890625 -23.28125 L 16.15625 -23.28125 C 14.695312 -23.28125 13.363281 -22.941406 12.15625 -22.265625 C 10.945312 -21.585938 9.988281 -20.644531 9.28125 -19.4375 C 8.570312 -18.238281 8.21875 -16.867188 8.21875 -15.328125 L 8.21875 0 L 4.109375 0 L 4.109375 -26.828125 L 8.21875 -26.828125 L 8.21875 -23 C 9.3125 -24.351562 10.578125 -25.375 12.015625 -26.0625 C 13.460938 -26.757812 15.023438 -27.109375 16.703125 -27.109375 Z M 18.890625 -27.109375 "/></g></g><g style="fill:#f5f3f5;fill-opacity:1;"><g transform="translate(199.392726, 206.011992)"><path style="stroke:none" d="M 15.71875 0.546875 C 13.09375 0.546875 10.8125 0.0546875 8.875 -0.921875 C 6.9375 -1.910156 5.445312 -3.28125 4.40625 -5.03125 C 3.363281 -6.789062 2.804688 -8.765625 2.734375 -10.953125 L 7.125 -10.953125 C 7.195312 -8.796875 7.976562 -7.023438 9.46875 -5.640625 C 10.96875 -4.253906 13.050781 -3.5625 15.71875 -3.5625 C 18.09375 -3.5625 19.984375 -4.125 21.390625 -5.25 C 22.796875 -6.382812 23.5 -7.921875 23.5 -9.859375 C 23.5 -11.359375 23.101562 -12.585938 22.3125 -13.546875 C 21.53125 -14.515625 20.554688 -15.273438 19.390625 -15.828125 C 18.222656 -16.378906 16.648438 -16.960938 14.671875 -17.578125 C 12.265625 -18.421875 10.347656 -19.195312 8.921875 -19.90625 C 7.503906 -20.613281 6.28125 -21.679688 5.25 -23.109375 C 4.226562 -24.535156 3.71875 -26.414062 3.71875 -28.75 C 3.71875 -30.644531 4.226562 -32.359375 5.25 -33.890625 C 6.28125 -35.429688 7.695312 -36.648438 9.5 -37.546875 C 11.3125 -38.441406 13.347656 -38.890625 15.609375 -38.890625 C 17.765625 -38.890625 19.726562 -38.421875 21.5 -37.484375 C 23.269531 -36.554688 24.679688 -35.269531 25.734375 -33.625 C 26.796875 -31.976562 27.347656 -30.171875 27.390625 -28.203125 L 23 -28.203125 C 22.925781 -30.140625 22.175781 -31.71875 20.75 -32.9375 C 19.332031 -34.164062 17.5625 -34.78125 15.4375 -34.78125 C 13.363281 -34.78125 11.648438 -34.265625 10.296875 -33.234375 C 8.941406 -32.210938 8.265625 -30.71875 8.265625 -28.75 C 8.265625 -27.363281 8.640625 -26.210938 9.390625 -25.296875 C 10.140625 -24.390625 11.070312 -23.679688 12.1875 -23.171875 C 13.300781 -22.660156 14.84375 -22.054688 16.8125 -21.359375 C 19.1875 -20.585938 21.128906 -19.816406 22.640625 -19.046875 C 24.160156 -18.285156 25.441406 -17.164062 26.484375 -15.6875 C 27.523438 -14.207031 28.046875 -12.265625 28.046875 -9.859375 C 28.046875 -7.890625 27.503906 -6.109375 26.421875 -4.515625 C 25.347656 -2.929688 23.878906 -1.691406 22.015625 -0.796875 C 20.148438 0.0976562 18.050781 0.546875 15.71875 0.546875 Z M 15.71875 0.546875 "/></g></g><g style="fill:#f5f3f5;fill-opacity:1;"><g transform="translate(226.384349, 206.011992)"><path style="stroke:none" d="M 14.34375 -6.515625 L 23.28125 -26.828125 L 27.65625 -26.828125 L 10.671875 10.953125 L 6.296875 10.953125 L 12.046875 -1.921875 L 0.28125 -26.828125 L 4.875 -26.828125 Z M 14.34375 -6.515625 "/></g></g><g style="fill:#f5f3f5;fill-opacity:1;"><g transform="translate(250.802638, 206.011992)"><path style="stroke:none" d="M 16.703125 -27.390625 C 18.859375 -27.390625 20.765625 -26.867188 22.421875 -25.828125 C 24.085938 -24.785156 25.375 -23.367188 26.28125 -21.578125 C 27.195312 -19.785156 27.65625 -17.796875 27.65625 -15.609375 L 27.65625 0 L 23.546875 0 L 23.546875 -15.609375 C 23.546875 -17.984375 22.890625 -19.898438 21.578125 -21.359375 C 20.265625 -22.816406 18.457031 -23.546875 16.15625 -23.546875 C 14.695312 -23.546875 13.363281 -23.207031 12.15625 -22.53125 C 10.945312 -21.851562 9.988281 -20.910156 9.28125 -19.703125 C 8.570312 -18.503906 8.21875 -17.140625 8.21875 -15.609375 L 8.21875 0 L 4.109375 0 L 4.109375 -26.828125 L 8.21875 -26.828125 L 8.21875 -23.28125 C 9.3125 -24.625 10.578125 -25.644531 12.015625 -26.34375 C 13.460938 -27.039062 15.023438 -27.390625 16.703125 -27.390625 Z M 16.703125 -27.390625 "/></g></g><g style="fill:#f5f3f5;fill-opacity:1;"><g transform="translate(278.506036, 206.011992)"><path style="stroke:none" d="M 15.9375 0.546875 C 13.457031 0.546875 11.164062 -0.0625 9.0625 -1.28125 C 6.96875 -2.507812 5.296875 -4.191406 4.046875 -6.328125 C 2.804688 -8.460938 2.1875 -10.828125 2.1875 -13.421875 C 2.1875 -16.015625 2.804688 -18.378906 4.046875 -20.515625 C 5.296875 -22.648438 6.96875 -24.328125 9.0625 -25.546875 C 11.164062 -26.773438 13.457031 -27.390625 15.9375 -27.390625 C 18.851562 -27.390625 21.488281 -26.582031 23.84375 -24.96875 C 26.207031 -23.363281 27.863281 -21.15625 28.8125 -18.34375 L 24.421875 -18.34375 C 23.617188 -19.988281 22.453125 -21.265625 20.921875 -22.171875 C 19.390625 -23.085938 17.726562 -23.546875 15.9375 -23.546875 C 14.21875 -23.546875 12.628906 -23.097656 11.171875 -22.203125 C 9.710938 -21.304688 8.5625 -20.09375 7.71875 -18.5625 C 6.882812 -17.03125 6.46875 -15.316406 6.46875 -13.421875 C 6.46875 -11.515625 6.882812 -9.796875 7.71875 -8.265625 C 8.5625 -6.734375 9.710938 -5.519531 11.171875 -4.625 C 12.628906 -3.726562 14.21875 -3.28125 15.9375 -3.28125 C 17.726562 -3.28125 19.390625 -3.738281 20.921875 -4.65625 C 22.453125 -5.570312 23.617188 -6.847656 24.421875 -8.484375 L 28.8125 -8.484375 C 27.863281 -5.671875 26.207031 -3.460938 23.84375 -1.859375 C 21.488281 -0.253906 18.851562 0.546875 15.9375 0.546875 Z M 15.9375 0.546875 "/></g></g></g></svg>